<svg xmlns="http://www.w3.org/2000/svg" width="347.502" height="200.649" viewBox="0 0 347.502 200.649">
  <g id="Group_3288" data-name="Group 3288" transform="translate(-902.498 -2446.249)">
    <g id="Ornament_19_" transform="translate(902.499 2380.651)">
      <path id="XMLID_1260_" d="M513,343.585c-.058-.58-.986-.58-.928,0a50.022,50.022,0,0,1-56.385,52.672c-.58-.058-.58.87,0,.928A50.909,50.909,0,0,0,513,343.585Z" transform="translate(-214.224 -168.18)" fill="#0d0f44"/>
      <path id="XMLID_295_" d="M291.772,430.566c-14.792,5.8-30.513-.928-42.695-9.455-6.207-4.351-12.008-9.281-18.1-13.864A120.791,120.791,0,0,0,212.59,395.7a119.262,119.262,0,0,0-61.258-12.414c-1.276.058-2.552.174-3.829.29-8.353-9.8-23.9-9.862-35.676-8.875a98.47,98.47,0,0,0-66.362,34.051,86.1,86.1,0,0,0-5.627,7.425c-.348.464.464.986.812.464A96.864,96.864,0,0,1,99.762,377.43a95.182,95.182,0,0,1,18.157-2.088c6.613-.116,13.632.232,19.9,2.668a23.292,23.292,0,0,1,8.643,5.743,67.341,67.341,0,0,0-15.952,3.365c-10.674,3.771-21.985,14.444-17.635,26.858,1.682,4.931,5.743,9.107,11.022,9.862,5.859.87,11.254-2.494,15.314-6.381,8.469-8.063,17.577-21.927,9.049-32.949a117.685,117.685,0,0,1,66.71,13.574c12.008,6.5,21.985,15.662,33.065,23.494,10.268,7.251,22.508,13.284,35.386,12.124a31.9,31.9,0,0,0,8.643-2.088C292.584,431.2,292.352,430.334,291.772,430.566ZM150.578,391.932c1.16,7.367-3.365,14.328-7.715,19.781-3.771,4.815-8.817,9.862-15.082,10.964-6.845,1.16-12.646-3.713-14.444-10.036-1.856-6.613,1.218-13.342,5.917-17.983,4.931-4.873,11.6-7.309,18.273-8.7,3.132-.638,6.323-1.16,9.572-1.508A15.921,15.921,0,0,1,150.578,391.932Z" transform="translate(-39.754 -181.258)" fill="#0d0f44"/>
    </g>
    <g id="Box_1_" transform="translate(936.249 2501.063)">
      <path id="XMLID_290_" d="M148.151,261.514v16.707H98.2s-3.132-28.482,11.95-28.482l27.438-.638a9.722,9.722,0,0,1,7.425,3.655A13.13,13.13,0,0,1,148.151,261.514Z" transform="translate(-97.935 -249.1)" fill="#0d0f44"/>
      <path id="XMLID_628_" d="M173.53,261.556v16.707H158.1V261.556c0-6.845,3.481-12.356,7.715-12.356,2.146,0,4.061,1.392,5.453,3.655A16.376,16.376,0,0,1,173.53,261.556Z" transform="translate(-123.199 -249.142)" fill="#7d7eaf"/>
      <path id="XMLID_285_" d="M146.7,286.685V410.07a.465.465,0,0,0,.928,0V286.685A.465.465,0,0,0,146.7,286.685Z" transform="translate(-118.412 -264.7)" fill="#0d0f44"/>
      <path id="XMLID_283_" d="M308.392,498.9H109.885a.465.465,0,0,0,0,.928H308.45C309.03,499.828,309.03,498.9,308.392,498.9Z" transform="translate(-102.77 -353.993)" fill="#c0cfff"/>
      <path id="XMLID_282_" d="M0,0H20.187V11.6H0Z" transform="translate(7.463 10.152)" fill="#fff" opacity="0.29"/>
    </g>
    <g id="Woman_10_" transform="translate(971.092 2446.249)">
      <g id="Head_20_" transform="translate(169.56 0)">
        <path id="Union_4" data-name="Union 4" d="M-5737.014-2185.028c-.121-.32-3.083-5.635-4.91-8.9a9.25,9.25,0,0,1-1.239-.959c-9.861-9.05,3.481-22.682,11.6-15.2,6.134,5.644,3.649,12.79-1.11,15.887,1.7,3.807,3.836,8.883,3.836,8.883s-4.714.441-6.985.442C-5736.519-2184.876-5736.986-2184.918-5737.014-2185.028Z" transform="translate(5748.964 2216.348)" fill="none" stroke="#0d0f44" stroke-width="0.5"/>
        <path id="XMLID_997_" d="M472.888,160.868c-3.655-2.32-5.511-9.107-9.862-4.931-1.682,2.842,2.726,8.759,4,10.674,1.508-.058,3.307.116,4.177,1.566,1.1,1.856,0,4-1.74,5.221.058,1.566,1.508,3.539,1.624,3.771C476.311,174.326,480.255,165.509,472.888,160.868Z" transform="translate(-455.485 -154.607)" fill="#0d0f44"/>
        <path id="XMLID_996_" d="M455.057,170.2l-1.972,4.815-2.784-2.32Z" transform="translate(-450.3 -161.155)" fill="#0d0f44"/>
        <path id="XMLID_269_" d="M463.072,170.78l-.29.638c-.232.522-1.044.058-.812-.464l.29-.638C462.55,169.736,463.3,170.258,463.072,170.78Z" transform="translate(-455.183 -161.097)" fill="#0d0f44"/>
        <path id="XMLID_267_" d="M472.579,179.839c-.406.29-.812.638-1.218.928-.464.348,0,1.16.464.812.406-.29.812-.638,1.218-.928C473.507,180.3,473.043,179.49,472.579,179.839Z" transform="translate(-459.063 -165.166)" fill="#0d0f44"/>
        <path id="XMLID_450_" d="M476.622,166.2c2.61.464,2.784,3.539,5.859,8.643,6.033-7.251,16.243-4.815,18.563-3.539,15.779-7.715,34.457,9.281,18.563,17.925-5.743,12.994-27.38,8.353-27.38,1.218-16.881,4.351-18.273-9.572-17.867-12.24l3.945-2.726Z" transform="translate(-460.379 -159.475)" fill="#0d0f44"/>
      </g>
      <g id="Hand_2_9_" transform="translate(116.25 29.232)">
        <path id="XMLID_578_" d="M379.921,217.6c-7.077-.174-12.414-1.218-13.632-3.365-3.945-6.961-7.889,10.906-7.889,10.906a78.855,78.855,0,0,0,21.057,8.3C379.747,228.157,379.863,222.878,379.921,217.6Z" transform="translate(-358.4 -208.202)" fill="none" stroke="#0d0f44" stroke-width="0.5"/>
        <path id="XMLID_264_" d="M436.922,205c-4.815,6.207-32.717,10.326-48.5,9.223-.812,4.873-1.8,9.688-2.726,14.56,10.036,3.132,22.972,4.815,32.949-1.972,19.027-12.994,23.2-11.022,23.668-15.778C442.723,206.334,436.922,205,436.922,205Z" transform="translate(-369.864 -205)" fill="#ff5d7d"/>
      </g>
      <path id="Body_19_" d="M473.677,200.1c6.787-.174,16.707,31.847,20.419,45.131l-16.533,5.279-11.6-7.425S460.393,200.39,473.677,200.1Z" transform="translate(-286.83 -173.71)" fill="#ff5d7d"/>
      <g id="Letter" transform="translate(0 2.548)">
        <path id="XMLID_263_" d="M300.006,159,262.88,233.194H158v-9.4a15.744,15.744,0,0,1,.058-1.682l6.207-12.356L189.673,159H300.006Z" transform="translate(-158 -159)" fill="#fff" stroke="#0d0f44" stroke-width="1"/>
        <path id="XMLID_481_" d="M317.041,164.461c-19.2,9.107-40.78,19.433-60.968,29.063-.29.116-.58.29-.87.406-4.583,2.2-9.165,4.351-13.516,6.439-.29.116-.58.29-.87.406-.174-.232-.348-.522-.522-.754-1.8-2.668-3.655-5.337-5.511-8.121-.174-.232-.348-.522-.522-.754-6.555-9.63-13.342-19.607-19.723-28.947-.348-.522.464-.986.812-.464,6.323,9.281,13.11,19.259,19.665,28.889.174.232.348.522.522.754,1.914,2.784,3.771,5.511,5.627,8.237,4.409-2.088,8.875-4.235,13.458-6.439a5.854,5.854,0,0,0,.87-.406c20.245-9.63,41.825-19.955,61.026-29.121C317.1,163.417,317.563,164.229,317.041,164.461Z" transform="translate(-181.705 -160.052)" fill="#0d0f44"/>
        <path id="XMLID_480_" d="M211.832,212.454l-.754.522L158,251.726v-1.16l52.556-38.344.754-.522A8.48,8.48,0,0,1,211.832,212.454Z" transform="translate(-158 -181.129)" fill="#0d0f44"/>
        <path id="XMLID_479_" d="M316.011,256.354l-.29.58h-.464L284.28,216.56c-.174-.232-.406-.522-.58-.754a5.857,5.857,0,0,0,.87-.406c.174.232.406.522.58.754Q300.552,236.254,316.011,256.354Z" transform="translate(-210.783 -182.683)" fill="#0d0f44"/>
        <path id="XMLID_478_" d="M299.06,290.557H291a3.829,3.829,0,0,1-3.6-4V263a3.829,3.829,0,0,1,3.6-4h5.8a3.829,3.829,0,0,1,3.6,4v18.911a3.829,3.829,0,0,1-3.6,4h-2.552a3.829,3.829,0,0,1-3.6-4v-17a.464.464,0,1,1,.928,0v17a2.919,2.919,0,0,0,2.668,3.075H296.8a2.88,2.88,0,0,0,2.668-3.075V263a2.919,2.919,0,0,0-2.668-3.074H291A2.88,2.88,0,0,0,288.328,263v23.552A2.919,2.919,0,0,0,291,289.629h8.063a.464.464,0,0,1,0,.928Z" transform="translate(-212.336 -200.991)" fill="#0d0f44"/>
      </g>
      <g id="Hand_28_" transform="translate(103.425 18.779)">
        <path id="XMLID_661_" d="M360.37,210.733c-5.163-1.218-8.817-2.494-9.4-3.307-1.856-2.61,1.1-13.98-.754-15.024-1.856-1.1-2.494,7.425-2.494,7.425s-.754-11.312-2.61-12.414-2.2,1.682-2.2,1.682c-2.32,0-2.436,1.1-2.436,1.1-1.682,0-2.784,3.249-2.784,3.249-2.32.464-1.218,6.033-.464,17.055.58,8.179,5.453,15.836,21.7,18.795A180.479,180.479,0,0,1,360.37,210.733Z" transform="translate(-336.292 -187.053)" fill="none" stroke="#0d0f44" stroke-width="0.5"/>
        <path id="XMLID_257_" d="M435.333,207.3a59.993,59.993,0,0,1-20.593,13.574c-10.558,3.945-32.485.7-43.623-2.32-1.16,6.091-2.146,12.182-3.016,18.331,6.149,1.624,14.328,2.436,25.118,2.146,18.1-.522,34.515-8.527,43.971-18.5C436.725,216.059,436.551,211.535,435.333,207.3Z" transform="translate(-349.648 -195.512)" fill="#ff5d7d"/>
        <path id="XMLID_462_" d="M339.573,200c-.232-1.276-.754-2.088-2.088-2.2-.58-.058-.58.87,0,.928,1.682.116,1.392,3.945,1.45,5.047.116,1.624.29,3.249.406,4.931.058.58.986.58.928,0C340.037,205.861,340.037,202.845,339.573,200Z" transform="translate(-336.61 -191.521)" fill="#0d0f44"/>
        <path id="XMLID_461_" d="M343.563,194.509c-.29-1.334-.754-2.668-2.378-2.61a.465.465,0,0,0,0,.928c2.378-.058,2.378,9.107,2.494,10.558a.465.465,0,0,0,.928,0A57,57,0,0,0,343.563,194.509Z" transform="translate(-338.164 -189.044)" fill="#0d0f44"/>
        <path id="XMLID_459_" d="M347.158,189.792a2.209,2.209,0,0,0-1.624-1.392c-.464.232-.87.522-1.334.754.232.174.638.348.87.174,1.334-.754,1.8,4.467,1.856,4.873.29,1.624.522,4.235.812,5.859.116.58.986.348.87-.232C348.2,196.927,348.087,192.577,347.158,189.792Z" transform="translate(-339.613 -187.576)" fill="#0d0f44"/>
        <path id="XMLID_458_" d="M351.205,189.254c-.464-1.566-1.624-2.552-3.248-2.2a.45.45,0,0,0,.232.87c2.958-.638,3.539,9.92,3.829,11.66.116.58.986.348.87-.232C352.365,196.041,352.191,192.386,351.205,189.254Z" transform="translate(-341.049 -186.98)" fill="#0d0f44"/>
        <path id="XMLID_249_" d="M435.905,217.438a46.476,46.476,0,0,1-40.316,8.005.45.45,0,0,0-.232.87,47.432,47.432,0,0,0,41.012-8.121C436.833,217.9,436.369,217.09,435.905,217.438Z" transform="translate(-360.953 -199.734)" fill="#fff"/>
        <path id="XMLID_248_" d="M476.342,228.206c-2.784,2.61-5.569,5.221-8.353,7.889-.464.406.232,1.044.638.638,2.784-2.61,5.569-5.221,8.353-7.889A.452.452,0,0,0,476.342,228.206Z" transform="translate(-391.528 -204.236)" fill="#fff"/>
      </g>
      <g id="Legs_20_" transform="translate(99.776 59.455)">
        <path id="XMLID_456_" d="M465.8,261.161c.29,3.539.58,5.859.58,5.859l11.6,7.425,16.533-5.279c-.87-3.191-2.146-7.425-3.6-12.066C482.507,258.318,474.153,259.826,465.8,261.161Z" transform="translate(-387.024 -257.1)" fill="#5857f9"/>
        <path id="XMLID_664_" d="M565.837,441.208c.348-.174.638-.348.986-.522,4.757-8.7,9.107-17.635,14.734-25.814-9.513-3.307-21.927-7.715-32.717-12.472-3.887,8.063-7.947,16.069-12.24,23.9C551.1,432.971,565.024,437.263,565.837,441.208Z" transform="translate(-416.753 -318.113)" fill="none" stroke="#0d0f44" stroke-width="0.5"/>
        <path id="XMLID_455_" d="M522.532,348.73c-8.237-3.539-15.721-7.251-20.651-10.906-14.212-10.5,1.566-35.734-6.207-62.3L482.041,272.1c-3.074,13.284-20.013,50.584-10.732,77.5,4.757,13.806,22.449,22.624,37.532,29.063C512.786,369.323,518.587,357.025,522.532,348.73Z" transform="translate(-388.183 -263.399)" fill="#5857f9"/>
        <path id="XMLID_454_" d="M595.91,422.5c-5.685,7.889-10.152,16.533-14.85,25,1.914,1.566,2.262,3.017.522,4.467-8.353,6.961-3.713,14.85-3.713,14.85h16.707l18.1-38.054C609.368,427.663,601.6,424.472,595.91,422.5Z" transform="translate(-433.543 -326.553)" fill="#0d0f44"/>
        <path id="XMLID_673_" d="M359.5,446.347c1.74.116,3.539,0,5.279-.058,3.423-.174,6.845-.174,10.268-.174,4.931,0,9.92-.116,14.85-.464a206.512,206.512,0,0,1-3.19-28.25c-8.991.058-17.983.464-27.032.638C359.094,435.5,361.646,442.692,359.5,446.347Z" transform="translate(-342.387 -324.411)" fill="#fafafa" stroke="#0d0f44" stroke-width="0.5"/>
        <path id="XMLID_453_" d="M390.777,360.882a101.612,101.612,0,0,1,1.45-25.408c6.961-34.805,57.487-57.2,57.487-57.2L421.87,274.1c-25.988,6.555-55.167,29.759-59.807,60.852A191.47,191.47,0,0,0,359.8,360.3C370.88,360.418,383.352,361.114,390.777,360.882Z" transform="translate(-342.513 -264.238)" fill="#5857f9"/>
        <path id="XMLID_451_" d="M347.925,462.2c-.29,3.307-1.682,4.815-5.859,5.975C330,471.6,330,483.489,330,483.489h50.12c0-4.757-1.45-12.124-2.958-21.057C367.416,462.374,357.67,462.258,347.925,462.2Z" transform="translate(-330 -343.223)" fill="#0d0f44"/>
        <path id="XMLID_230_" d="M597.218,468.392c-2.32.464-4.641.928-6.961,1.334-.58.116-.348.986.232.87,2.32-.464,4.641-.928,6.961-1.334C598.03,469.146,597.8,468.276,597.218,468.392Z" transform="translate(-439.143 -345.819)" fill="#fff"/>
        <path id="XMLID_228_" d="M369.631,473.4c-2.03-1.1-4-2.146-6.033-3.249a.468.468,0,0,0-.464.812c2.03,1.1,4,2.146,6.033,3.248A.468.468,0,0,0,369.631,473.4Z" transform="translate(-343.817 -346.538)" fill="#fff"/>
        <path id="XMLID_227_" d="M482.9,287.26c-1.1-1.392-2.146-2.784-3.249-4.177-.348-.464-1.044.174-.638.638,1.1,1.392,2.146,2.784,3.249,4.177C482.607,288.42,483.245,287.724,482.9,287.26Z" transform="translate(-392.519 -267.943)" fill="#fff"/>
      </g>
    </g>
  </g>
</svg>
